<?xml version="1.0" encoding="utf-8"?>
<!-- Generator: Adobe Illustrator 19.0.1, SVG Export Plug-In . SVG Version: 6.00 Build 0)  -->
<svg version="1.1" id="camera-small" xmlns="http://www.w3.org/2000/svg" xmlns:xlink="http://www.w3.org/1999/xlink" x="0px" y="0px"
	 viewBox="0 0 45 45" style="enable-background:new 0 0 45 45;" xml:space="preserve">
<style type="text/css">
	.camera-small0{fill:none;stroke:#FFFFFF;stroke-width:2;stroke-linecap:round;stroke-linejoin:round;stroke-miterlimit:10;}
	.camera-small1{fill:#FFFFFF;}
</style>
<path class="camera-small0" d="M14,8.1c0.4-1.5,1.8-3.1,3-3.1h2.9c1.2,0,2.7,1.5,3.1,3"/>
<path class="camera-small0" d="M7.6,14c1.1-3.2,4.2-6,7.7-6h6.9c3.6,0,6.6,2.8,7.7,6"/>
<g>
	<path class="camera-small1" d="M18.4,24.9c1,0,1.9,0.8,1.9,1.9s-0.8,1.9-1.9,1.9s-1.9-0.8-1.9-1.9S17.3,24.9,18.4,24.9 M18.4,22.9
		c-2.1,0-3.9,1.7-3.9,3.9s1.7,3.9,3.9,3.9s3.9-1.7,3.9-3.9S20.5,22.9,18.4,22.9L18.4,22.9z"/>
</g>
<g>
	<path class="camera-small1" d="M18.4,18.9c4.3,0,7.9,3.5,7.9,7.9s-3.5,7.9-7.9,7.9s-7.9-3.5-7.9-7.9S14,18.9,18.4,18.9 M18.4,16.9
		c-5.4,0-9.9,4.4-9.9,9.9s4.4,9.9,9.9,9.9c5.4,0,9.9-4.4,9.9-9.9S23.8,16.9,18.4,16.9L18.4,16.9z"/>
</g>
<g>
	<path class="camera-small1" d="M35.8,15.5c3.1,0,5.7,2.6,5.7,5.7v10.6c0,3.1-2.6,5.7-5.7,5.7H9.2c-3.1,0-5.7-2.6-5.7-5.7V21.2
		c0-3.1,2.6-5.7,5.7-5.7H35.8 M35.8,13.5H9.2c-4.2,0-7.7,3.5-7.7,7.7v10.6c0,4.2,3.5,7.7,7.7,7.7h26.6c4.2,0,7.7-3.5,7.7-7.7V21.2
		C43.5,17,40,13.5,35.8,13.5L35.8,13.5z"/>
</g>
<line class="camera-small0" x1="33.5" y1="17.5" x2="33.5" y2="35.5"/>
<path class="camera-small0" d="M32.5,13.5c0-1.1,0.9-2,2-2h1c1.1,0,2,0.9,2,2"/>
</svg>
