<?xml version="1.0" encoding="utf-8"?>
<!-- Generator: Adobe Illustrator 19.0.1, SVG Export Plug-In . SVG Version: 6.00 Build 0)  -->
<svg version="1.1" id="camera-big" xmlns="http://www.w3.org/2000/svg" xmlns:xlink="http://www.w3.org/1999/xlink" x="0px" y="0px"
	 viewBox="0 0 135 135" style="enable-background:new 0 0 135 135;" xml:space="preserve">
<style type="text/css">
	.camera-big0{fill:none;stroke:#FFFFFF;stroke-width:2;stroke-linecap:round;stroke-linejoin:round;stroke-miterlimit:10;}
	.camera-big1{fill:#FFFFFF;}
</style>
<path class="camera-big0" d="M42.6,20.5c1.2-4.7,5.6-9.7,9.4-9.7H61c3.9,0,8.3,4,9.7,9.4"/>
<path class="camera-big0" d="M22.6,38.4C26,28.4,35.6,20,46.7,20h21.8c11.1,0,20.4,8.4,23.9,18.3"/>
<g>
	<path class="camera-big1" d="M57.7,75.9c2.8,0,5.1,2.3,5.1,5.1c0,2.8-2.3,5.1-5.1,5.1s-5.1-2.3-5.1-5.1C52.6,78.2,54.9,75.9,57.7,75.9
		 M57.7,73.9c-3.9,0-7.1,3.2-7.1,7.1s3.2,7.1,7.1,7.1s7.1-3.2,7.1-7.1S61.6,73.9,57.7,73.9L57.7,73.9z"/>
</g>
<g>
	<path class="camera-big1" d="M19.3,52.3c2.5,0,4.6,2.1,4.6,4.6c0,2.5-2.1,4.6-4.6,4.6c-2.5,0-4.6-2.1-4.6-4.6
		C14.7,54.3,16.7,52.3,19.3,52.3 M19.3,50.3c-3.6,0-6.6,2.9-6.6,6.6c0,3.6,2.9,6.6,6.6,6.6c3.6,0,6.6-2.9,6.6-6.6
		C25.8,53.2,22.9,50.3,19.3,50.3L19.3,50.3z"/>
</g>
<g>
	<path class="camera-big1" d="M57.7,58.5c12.4,0,22.5,10.1,22.5,22.5s-10.1,22.5-22.5,22.5S35.3,93.4,35.3,81S45.3,58.5,57.7,58.5
		 M57.7,56.5c-13.5,0-24.5,11-24.5,24.5s11,24.5,24.5,24.5s24.5-11,24.5-24.5S71.2,56.5,57.7,56.5L57.7,56.5z"/>
</g>
<g>
	<path class="camera-big1" d="M57.7,51.3c16.3,0,29.7,13.3,29.7,29.7s-13.3,29.7-29.7,29.7S28.1,97.3,28.1,81S41.4,51.3,57.7,51.3
		 M57.7,49.3c-17.5,0-31.7,14.2-31.7,31.7s14.2,31.7,31.7,31.7S89.4,98.5,89.4,81S75.2,49.3,57.7,49.3L57.7,49.3z"/>
</g>
<path class="camera-big0" d="M132.5,63.6c0-13.3-10.8-24.1-24.1-24.1H25.6c-13.3,0-24.1,10.8-24.1,24.1v32.9c0,13.3,10.8,24.1,24.1,24.1
	h82.9c13.3,0,24.1-10.8,24.1-24.1V63.6z"/>
<line class="camera-big0" x1="104.5" y1="51.5" x2="104.5" y2="107.5"/>
<path class="camera-big0" d="M97.5,37.6c0-3.4,2.8-6.2,6.2-6.2h3.1c3.4,0,6.2,2.8,6.2,6.2"/>
</svg>
