<?xml version="1.0" encoding="utf-8"?>
<!-- Generator: Adobe Illustrator 19.0.1, SVG Export Plug-In . SVG Version: 6.00 Build 0)  -->
<svg version="1.1" id="Layer_1" xmlns="http://www.w3.org/2000/svg" xmlns:xlink="http://www.w3.org/1999/xlink" x="0px" y="0px"
	 viewBox="0 0 45 45" style="enable-background:new 0 0 45 45;" xml:space="preserve">
<style type="text/css">
	.chicken0{fill:none;stroke:#FFFFFF;stroke-width:2;stroke-linecap:round;stroke-linejoin:round;stroke-miterlimit:10;}
	.chicken1{fill:#FFFFFF;}
</style>
<path class="chicken1" d="M37.6,10.2L37.6,10.2c0.2-0.2,0.3-0.5,0.2-0.8L37.6,8l2.2-0.7c-0.9-0.9-2.3-0.7-2.3-0.7L37.9,5
	c-0.2-0.3-1.3-0.7-1.3-0.7l-0.7,0.3l-0.5-0.5l-1.8,0.1L34,5.7c0,0.4-0.2,0.7-0.6,0.9l0,0c-0.6,0.2-1.1,0.7-1.4,1.3
	c0,0-0.4,3.5-1.9,6.2c-1.4,2.4-3.8,4-4.9,4.3l0,0c-1.9,0.5-3.9,0.3-5.7-0.5l-3-1.4c-1.5-0.7-2.8-1.8-3.9-3l-4-4.7
	C8.1,8,7.3,7.7,6.5,7.8L4.9,8c-0.6,0.1-1,0.8-0.7,1.3c0.9,1.6,2.4,4.4,2.4,4.8c0,0.1,0,0.3-0.1,0.5c-0.2,0.7-0.1,1.4,0.5,1.9
	c1,0.9,2.4,2.2,2.4,2.5c0,0.1-0.1,0.5-0.1,1c0,1,0.5,2,1.3,2.7c0.9,0.7,2,1.7,2.2,1.9c0.3,0.3,1.6,4.1,1.5,4.5
	c-0.1,0.3,2.4,1.5,2.4,1.5l2,0.9l2.1,3.8c0.5,0.9,0.6,2,0.4,3l-0.4,1.5L15.4,41h9.2l-1.8-1.3v-2.1c0-0.5,0.1-1,0.2-1.5l0.9-2.7
	l2.4,1l0.8-0.3l1.2,5.5L26.7,41H35l-5.5-1.5l-0.4-1.7c-0.3-1.3-0.3-2.7,0.2-4l0,0c0.1-0.2,0.2-0.4,0.5-0.5l1-0.3
	c1.4-0.5,2.6-1.5,3.5-2.7l0,0c2.2-3.5,2.7-7.8,1.3-11.6l-0.8-2.3c-0.2-0.7-0.3-1.4-0.2-2.1l0.4-4.3l0.3,0.3
	C35.9,10.9,37,10.9,37.6,10.2z"/>
</svg>
