<?xml version="1.0" encoding="utf-8"?>
<!-- Generator: Adobe Illustrator 19.0.1, SVG Export Plug-In . SVG Version: 6.00 Build 0)  -->
<svg version="1.1" id="Layer_1" xmlns="http://www.w3.org/2000/svg" xmlns:xlink="http://www.w3.org/1999/xlink" x="0px" y="0px"
	 viewBox="0 0 45 45" style="enable-background:new 0 0 45 45;" xml:space="preserve">
<style type="text/css">
	.cow0{fill:none;stroke:#FFFFFF;stroke-width:2;stroke-linecap:round;stroke-linejoin:round;stroke-miterlimit:10;}
	.cow1{fill:#FFFFFF;}
</style>
<g>
	<path class="cow1" d="M27.9,27.8L27.4,37h2l1.7-5.3l-1-2.6c-0.3-0.7-1-1.2-1.8-1.3C28.3,27.8,28.1,27.8,27.9,27.8z M9.3,24L7.1,37h2
		l1.5-3.7l-1-2.7c-0.3-0.7-0.4-1.5-0.4-2.3L9.3,24z M43.4,12.8c-0.1-0.1-0.2-0.2-0.3-0.2l-2.9-1.8c-0.1-0.1-0.1-0.1-0.2-0.2L39,9.9
		C38.4,9.3,37.5,9,36.7,9h-0.1l-0.3-0.4c-1-1.5-0.5-3.5,1-4.5l1.2-0.8l-1.1,0.3c-2.5,0.7-4.1,3.1-3.9,5.7c-0.7-0.4-1.8-1.1-2.1-1.3
		c-0.1-0.1-0.2-0.1-0.3,0l-1.7,0.5c-0.4,0.1-0.4,0.6,0,0.8l1.8,0.7c0,0,0.1,0,0.1,0l1.8,0.3c-0.1,0.3-0.2,0.6-0.2,0.9v3.5L22.1,16
		c-0.3,0-7.5,0.1-8.9,0.4c-1.5-0.1-2.9-0.1-2.9,0.1c-0.2-0.2-4.1,4-6.5,6.6c-0.9,0.2-2.1,0.5-2.3,0.6c-0.3,0.1-0.6,1.9-0.8,2.1
		c0,0,2.9-0.7,3.1-0.7c0.1,0,0.4-0.9,0.6-1.6l4.8-2.9c0.5-0.3,1.2,0,1.2,0.6c0.1,2.1,0.3,4.4,0.4,5.9c0.1,1.1,0.4,2.1,1,3l4.1,6.9
		h2.8l-2.4-6.8h1.4c0.5,0,0.9-0.2,1.2-0.6l0.8-1.1c0.6-0.7,1.4-1.1,2.3-1.1l7.5-1.5c1,0,1.8,0.6,2.1,1.5l3.4,9.5h2l-0.8-11.5
		c1-1.6,1.2-6.5,1.2-6.5l0.4-1.6c0.1-0.5,0.6-0.9,1.1-1.1l3.8-0.2c0.1,0,0.2-0.1,0.4-0.1C44.2,15.4,44.3,13.8,43.4,12.8z"/>
	<path class="cow1" d="M38.8,8.1c0,0,1.1,0.3,1.5,0.9c0,0,2-1.6,0.4-5.2C40.7,3.8,41.7,6.9,38.8,8.1z"/>
</g>
</svg>
