<?xml version="1.0" encoding="utf-8"?>
<!-- Generator: Adobe Illustrator 19.0.1, SVG Export Plug-In . SVG Version: 6.00 Build 0)  -->
<svg version="1.1" id="description-big" xmlns="http://www.w3.org/2000/svg" xmlns:xlink="http://www.w3.org/1999/xlink" x="0px" y="0px"
	 viewBox="0 0 135 135" style="enable-background:new 0 0 135 135;" xml:space="preserve">
<style type="text/css">
	.description-big0{fill:none;stroke:#FFFFFF;stroke-width:2;stroke-linecap:round;stroke-linejoin:round;stroke-miterlimit:10;}
	.description-big1{fill:#FFFFFF;}
</style>
<path class="description-big0" d="M48.7,11.1L48.7,11.1c0.8-4.7,5.3-7.9,10-7.1l57,9.6c4.7,0.8,7.9,5.3,7.1,10L111,93.7"/>
<g>
	<path class="description-big1" d="M100,18c1.1,0,2,0.9,2,2v104c0,1.1-0.9,2-2,2H23c-1.1,0-2-0.9-2-2V20c0-1.1,0.9-2,2-2H100 M100,16H23
		c-2.2,0-4,1.8-4,4v104c0,2.2,1.8,4,4,4h77c2.2,0,4-1.8,4-4V20C104,17.8,102.2,16,100,16L100,16z"/>
</g>
<line class="description-big0" x1="35" y1="38" x2="88" y2="38"/>
<line class="description-big0" x1="35" y1="61" x2="88" y2="61"/>
<line class="description-big0" x1="35" y1="74" x2="88" y2="74"/>
<line class="description-big0" x1="35" y1="88" x2="88" y2="88"/>
<line class="description-big0" x1="35" y1="101" x2="88" y2="101"/>
<line class="description-big0" x1="35" y1="114" x2="88" y2="114"/>
</svg>
