<?xml version="1.0" encoding="utf-8"?>
<!-- Generator: Adobe Illustrator 19.0.1, SVG Export Plug-In . SVG Version: 6.00 Build 0)  -->
<svg version="1.1" id="description-small" xmlns="http://www.w3.org/2000/svg" xmlns:xlink="http://www.w3.org/1999/xlink" x="0px" y="0px"
	 viewBox="0 0 45 45" style="enable-background:new 0 0 45 45;" xml:space="preserve">
<style type="text/css">
	.description-small0{fill:none;stroke:#FFFFFF;stroke-width:2;stroke-linecap:round;stroke-linejoin:round;stroke-miterlimit:10;}
	.description-small1{fill:#FFFFFF;}
</style>
<path class="description-small0" d="M17.4,6L17.4,6c0.2-1.4,1.6-2.4,3-2.2l17.3,2.9c1.4,0.2,2.4,1.6,2.2,3l-3.6,21.3"/>
<g>
	<path class="description-small1" d="M30.5,9.5c1.1,0,2,0.9,2,2v26c0,1.1-0.9,2-2,2h-18c-1.1,0-2-0.9-2-2v-26c0-1.1,0.9-2,2-2H30.5 M30.5,7.5h-18
		c-2.2,0-4,1.8-4,4v26c0,2.2,1.8,4,4,4h18c2.2,0,4-1.8,4-4v-26C34.5,9.3,32.7,7.5,30.5,7.5L30.5,7.5z"/>
</g>
<line class="description-small0" x1="14.5" y1="14.5" x2="28.5" y2="14.5"/>
<line class="description-small0" x1="14.5" y1="23.5" x2="28.5" y2="23.5"/>
<line class="description-small0" x1="14.5" y1="27.5" x2="28.5" y2="27.5"/>
<line class="description-small0" x1="14.5" y1="31.5" x2="28.5" y2="31.5"/>
<line class="description-small0" x1="14.5" y1="35.5" x2="28.5" y2="35.5"/>
</svg>
