<?xml version="1.0" encoding="utf-8"?>
<!-- Generator: Adobe Illustrator 19.0.1, SVG Export Plug-In . SVG Version: 6.00 Build 0)  -->
<svg version="1.1" id="Layer_1" xmlns="http://www.w3.org/2000/svg" xmlns:xlink="http://www.w3.org/1999/xlink" x="0px" y="0px"
	 viewBox="0 0 45 45" style="enable-background:new 0 0 45 45;" xml:space="preserve">
<style type="text/css">
	.fish0{fill:none;stroke:#FFFFFF;stroke-width:2;stroke-linecap:round;stroke-linejoin:round;stroke-miterlimit:10;}
	.fish1{fill:#FFFFFF;}
</style>
<path class="fish1" d="M37,26.6c-1.3-1.4-2.6-2.8-2.6-3.4c0-0.6,1.3-2.7,2.5-4.4c-1.8-1.5-4.3-2.5-4.3-2.5l-2.8-2.6
	c0,0-6.1-3.6-14.1,2l3.2,1l-3,1.4l-3.7-0.8L10.6,18l1.5,1.8L10,20.3c-0.5,0.1-1,0-1.5-0.2l-5.4-3c-0.6-0.4-1.3,0.1-1.2,0.8L4,22.6
	l-2.1,4.9c-0.1,0.7,0.7,1.1,1.2,0.7l4.7-2.9c0.8-0.5,1.7-0.6,2.6-0.3l6.7,2.4l-2,1.5l3.9,2l0.9-2.1c0,0,7.3,2.8,12.5-1.2l-2.4,3.2
	c0,0,1.3,1.8,1.5,1.7c0.1-0.1,2.1-0.7,2.1-0.8c0.1-0.1-0.1-4-0.1-4S36.1,26.9,37,26.6z"/>
<path class="fish1" d="M43.1,24.5L40.7,23l2.5-1.2c0.1-0.1-4-2.2-4.7-2.5c-1,1.5-2.2,3.3-2.2,3.8c0,0.5,1.1,1.7,2.2,2.9
	C38.9,26,43.2,24.6,43.1,24.5z"/>
</svg>
