<?xml version="1.0" encoding="utf-8"?>
<!-- Generator: Adobe Illustrator 19.0.1, SVG Export Plug-In . SVG Version: 6.00 Build 0)  -->
<svg version="1.1" id="Layer_1" xmlns="http://www.w3.org/2000/svg" xmlns:xlink="http://www.w3.org/1999/xlink" x="0px" y="0px"
	 viewBox="0 0 45 45" style="enable-background:new 0 0 45 45;" xml:space="preserve">
<style type="text/css">
	.st0{fill-rule:evenodd;clip-rule:evenodd;fill:#FFFFFF;}
	.st1{fill:none;stroke:#FFFFFF;stroke-width:2;stroke-linecap:round;stroke-linejoin:round;stroke-miterlimit:10;}
	.st2{fill:#FFFFFF;}
</style>
<path class="st2" d="M40.3,11.5H18.2c-1.1,0-1.9-0.9-1.9-1.9v0c0-1.1,0.9-1.9,1.9-1.9h22.1c1.1,0,1.9,0.9,1.9,1.9v0
	C42.2,10.6,41.4,11.5,40.3,11.5z"/>
<path class="st2" d="M14.5,4.6c-0.8-0.7-2-0.6-2.7,0.2l-4.9,5.6L5.2,8.9C4.4,8.1,3.2,8.2,2.5,9c-0.7,0.8-0.7,2,0.1,2.7l3,2.8
	c0.5,0.5,1.3,0.6,1.9,0.4c0.4-0.1,0.8-0.3,1.1-0.6l6.1-7C15.4,6.5,15.3,5.3,14.5,4.6z"/>
<path class="st2" d="M40.3,24.5H18.2c-1.1,0-1.9-0.9-1.9-1.9v0c0-1.1,0.9-1.9,1.9-1.9h22.1c1.1,0,1.9,0.9,1.9,1.9v0
	C42.2,23.6,41.4,24.5,40.3,24.5z"/>
<path class="st2" d="M14.5,17.6c-0.8-0.7-2-0.6-2.7,0.2l-4.9,5.6l-1.6-1.5c-0.8-0.7-2-0.7-2.7,0.1c-0.7,0.8-0.7,2,0.1,2.7l3,2.8
	c0.5,0.5,1.3,0.6,1.9,0.4c0.4-0.1,0.8-0.3,1.1-0.6l6.1-7C15.4,19.5,15.3,18.3,14.5,17.6z"/>
<path class="st2" d="M40.3,37.5H18.2c-1.1,0-1.9-0.9-1.9-1.9v0c0-1.1,0.9-1.9,1.9-1.9h22.1c1.1,0,1.9,0.9,1.9,1.9v0
	C42.2,36.6,41.4,37.5,40.3,37.5z"/>
<path class="st2" d="M14.5,30.6c-0.8-0.7-2-0.6-2.7,0.2l-4.9,5.6l-1.6-1.5c-0.8-0.7-2-0.7-2.7,0.1c-0.7,0.8-0.7,2,0.1,2.7l3,2.8
	c0.5,0.5,1.3,0.6,1.9,0.4c0.4-0.1,0.8-0.3,1.1-0.6l6.1-7C15.4,32.5,15.3,31.3,14.5,30.6z"/>
</svg>
