<?xml version="1.0" encoding="utf-8"?>
<!-- Generator: Adobe Illustrator 19.0.1, SVG Export Plug-In . SVG Version: 6.00 Build 0)  -->
<svg version="1.1" id="logo" xmlns="http://www.w3.org/2000/svg" xmlns:xlink="http://www.w3.org/1999/xlink" x="0px" y="0px"
	 viewBox="0 0 235 112" style="enable-background:new 0 0 235 112;" xml:space="preserve">
<style type="text/css">
	.logo0{fill:none;stroke:#FFFFFF;stroke-width:2;stroke-linecap:round;stroke-linejoin:round;stroke-miterlimit:10;}
	.logo1{fill:#FFFFFF;}
</style>
<g>
	<g>
		<path class="logo1" d="M15.1,79.3c0,2.6,0.2,2.8,2.6,2.8v1.1H9.3v-1.1c2.8,0,2.9-0.2,2.9-2.9V60.3c0-2.7-0.2-2.9-2.9-2.9v-1.1h25.2
			v1.1c-2.8,0-2.9,0.2-2.9,2.9v18.9c0,2.6,0.1,2.9,2.9,2.9v1.1h-8.4v-1.1c2.5,0,2.6-0.2,2.6-2.8V60.6c0-2.5-0.1-2.8-2.3-2.8h-9
			c-2.1,0-2.3,0.2-2.3,2.8V79.3z"/>
		<path class="logo1" d="M40.2,69.8c0-11.2,6.4-14,11.9-14c6.7,0,11.9,4,11.9,14c0,10.3-5.3,14-11.9,14C46.4,83.7,40.2,80.9,40.2,69.8
			z M45.8,59.9c-1.6,1.9-2.5,5-2.5,9.8c0,4.1,0.9,7.6,2.6,9.8c1.5,1.7,3.8,2.8,6.3,2.8c2.4,0,4.8-1.1,6.3-2.8
			c1.7-2.2,2.6-5.6,2.6-9.8c0-4.8-1-7.9-2.6-9.8c-1.6-1.8-3.9-2.7-6.3-2.7C49.6,57.2,47.4,58,45.8,59.9z"/>
		<path class="logo1" d="M67,87.4l1.3-5.7h1.6c2.7-6.4,3.2-13.4,3.2-22.5c0-1.5-0.7-1.8-3.2-1.8v-1.1h20v1.1c-2.4,0-2.7,0.3-2.7,2.8
			v21.5h1.8l1.3,5.7h-1.3c-1.1-3.9-1.4-4.2-4-4.2H72.1c-2.3,0-2.8,0.3-3.8,4.2H67z M76.8,57.8c-1,0-1.2,0.2-1.2,1.2
			c0,8.8-0.5,16.4-3,22.7h11.7V59c0-1.2-0.2-1.3-1.2-1.3H76.8z"/>
		<path class="logo1" d="M117.1,79.3c0,2.6,0.2,2.8,2.6,2.8v1.1h-8.4v-1.1c2.8,0,2.9-0.2,2.9-2.9V60.3c0-2.7-0.2-2.9-2.9-2.9v-1.1
			h25.2v1.1c-2.8,0-2.9,0.2-2.9,2.9v18.9c0,2.6,0.1,2.9,2.9,2.9v1.1h-8.4v-1.1c2.5,0,2.6-0.2,2.6-2.8V60.6c0-2.5-0.1-2.8-2.3-2.8h-9
			c-2.1,0-2.3,0.2-2.3,2.8V79.3z"/>
		<path class="logo1" d="M166.3,79.3c0,2.6,0.3,2.8,2.9,2.8v1.1h-8.5v-1.1c2.5,0,2.7-0.2,2.7-2.8V63.2l-13.6,15.6c0,3,0,3.2,2.7,3.2
			v1.1H144v-1.1c2.7,0,2.9-0.2,2.9-2.8v-19c0-2.6-0.2-2.8-2.9-2.8v-1.1h8.5v1.1c-2.4,0-2.7,0.2-2.7,2.8v16.3l13.6-15.7
			c0-3.2,0-3.4-2.7-3.4v-1.1h8.5v1.1c-2.7,0-2.9,0.2-2.9,2.8V79.3z"/>
		<path class="logo1" d="M177.2,56.3h9.1c3.2,0,5.2,0.3,7.1,1.6c1.3,1,2.3,2.5,2.3,4.5c0,2.9-1.7,5.8-6.6,6.5V69c3.4,0.1,8,1.9,8,6.6
			c0,3-1.3,7.6-9,7.6h-10.8v-1.1c2.7,0,2.9-0.2,2.9-2.9V60.3c0-2.7-0.2-2.9-2.9-2.9V56.3z M183,68.4h2.9c4.3,0,6.8-1.9,6.8-5.7
			c0-1.3-0.4-2.6-1.3-3.5c-0.9-0.8-2.3-1.4-4.5-1.4H184c-0.9,0-1,0.3-1,1.2V68.4z M183,79.9c0,1.5,0.2,1.8,1.3,1.8h3.5
			c3.7,0,6.2-1.6,6.2-6.2c0-1.7-0.7-3.2-1.9-4.2c-1.2-1-2.9-1.5-5.4-1.5H183V79.9z"/>
		<path class="logo1" d="M202,69.8c0-11.2,6.4-14,11.9-14c6.7,0,11.9,4,11.9,14c0,10.3-5.3,14-11.9,14C208.1,83.7,202,80.9,202,69.8z
			 M207.5,59.9c-1.6,1.9-2.5,5-2.5,9.8c0,4.1,0.9,7.6,2.6,9.8c1.5,1.7,3.8,2.8,6.3,2.8c2.4,0,4.8-1.1,6.3-2.8
			c1.7-2.2,2.6-5.6,2.6-9.8c0-4.8-1-7.9-2.6-9.8c-1.6-1.8-3.9-2.7-6.3-2.7C211.4,57.2,209.2,58,207.5,59.9z"/>
	</g>
	<path class="logo1" d="M81,105.4h9.3v0.6H81V105.4z"/>
	<path class="logo1" d="M103.6,108.6l-0.4,2h-5.8l-0.2-0.2c0.6-2.7,2.2-4,3.5-4.8c1-0.7,1.6-1.3,1.6-2.4c0-0.9-0.4-1.8-2-1.8
		c-0.8,0-1.6,0.3-1.9,1.5c-0.1,0.4-0.3,0.5-0.6,0.5c-0.2,0-0.4-0.2-0.4-0.6c0-0.7,0.9-2,3-2c2.4,0,3,1.4,3,2.4c0,1.2-0.8,2-1.6,2.5
		c-1.7,1.2-3.2,2.1-3.8,4h3.8c0.9,0,1-0.1,1.3-1.3L103.6,108.6z"/>
	<path class="logo1" d="M106.2,109.7c-0.7-0.8-1.1-2.1-1.1-4c0-1.9,0.4-3.3,1.2-4.1c0.5-0.5,1.3-0.8,2.2-0.8c1,0,1.7,0.3,2.2,0.8
		c0.9,0.8,1.2,2.2,1.2,4.1c0,2-0.4,3.2-1.1,4c-0.7,0.7-1.5,1-2.4,1C108.1,110.7,107.1,110.7,106.2,109.7z M106.2,105.7
		c0,2.1,0.3,4.5,2.3,4.5c1.9,0,2.3-2.2,2.3-4.5c0-2.1-0.4-3.2-0.9-3.8c-0.4-0.5-1-0.6-1.5-0.6C106.9,101.2,106.2,102.8,106.2,105.7z
		"/>
	<path class="logo1" d="M115.7,102.9c0-0.5-0.1-0.8-0.3-0.8c-0.2,0-0.5,0.1-0.9,0.3l-0.1-0.4c1-0.4,1.7-0.7,2.3-1.2l0.1,0.1v8.1
		c0,1,0.1,1.1,1.3,1.1v0.4h-3.7v-0.4c1.2,0,1.3-0.1,1.3-1.1V102.9z"/>
	<path class="logo1" d="M119.9,102.9l0.4-2h5.9l0.1,0.2c-2.2,2.8-3.3,6.3-3.4,9.5h-1.2c0.1-4.1,2.3-7.5,3.5-8.9h-3.4
		c-0.9,0-1.1,0.1-1.4,1.2H119.9z"/>
	<path class="logo1" d="M132.6,105.4h9.3v0.6h-9.3V105.4z"/>
	<path class="logo1" d="M125,43.6l-3.8-3.8l0,0L82.7,1.3c0,0,5.7,13,24.3,31.7l5-0.9l-0.9,0.9c-0.4,0.4-0.4,1.1,0,1.6L122.6,46
		c0.4,0.4,1.1,0.4,1.6,0l0.9-0.9C125.4,44.7,125.4,44,125,43.6z"/>
	<path class="logo1" d="M125,43.6l-3.8-3.8l0,0L82.7,1.3c0,0,5.7,13,24.3,31.7l5-0.9l-0.9,0.9c-0.4,0.4-0.4,1.1,0,1.6L122.6,46
		c0.4,0.4,1.1,0.4,1.6,0l0.9-0.9C125.4,44.7,125.4,44,125,43.6z"/>
	<g>
		<path class="logo1" d="M115.6,32.1l0.7-0.7c0.4-0.4,0.4-1.1,0-1.6l-1.6-1.6l9.1,6.4l22.4-22.4l-9-6c-1.3-0.8-3-0.7-4.1,0.4
			l-21.5,21.4L115.6,32.1z"/>
		<path class="logo1" d="M110,35.6c-0.4-0.4-0.6-0.9-0.7-1.4l-2,0.4c-0.5,0.1-1-0.1-1.4-0.4c0,0,0,0-0.1-0.1l-2.9,2.9L97.8,42
			c-0.4,0.4-0.4,1.1,0,1.6l2.4,2.4c0.4,0.4,1.1,0.4,1.6,0l9.3-9.3L110,35.6z"/>
	</g>
</g>
</svg>
