<?xml version="1.0" encoding="utf-8"?>
<!-- Generator: Adobe Illustrator 19.0.1, SVG Export Plug-In . SVG Version: 6.00 Build 0)  -->
<svg version="1.1" id="Layer_1" xmlns="http://www.w3.org/2000/svg" xmlns:xlink="http://www.w3.org/1999/xlink" x="0px" y="0px"
	 viewBox="0 0 169 25.3" style="enable-background:new 0 0 169 25.3;" xml:space="preserve">
<style type="text/css">
	.st0{fill-rule:evenodd;clip-rule:evenodd;fill:#FFFFFF;}
	.st1{fill:none;stroke:#FFFFFF;stroke-width:2;stroke-linecap:round;stroke-linejoin:round;stroke-miterlimit:10;}
	.st2{fill:#FFFFFF;}
</style>
<g>
	<path class="st2" d="M50.5,18.8c0,1.5,0.1,1.6,1.5,1.6V21h-4.7v-0.6c1.6,0,1.6-0.1,1.6-1.6V8.1c0-1.5-0.1-1.6-1.6-1.6V5.9h14.2v0.6
		c-1.6,0-1.7,0.1-1.7,1.6v10.6c0,1.5,0.1,1.6,1.7,1.6V21h-4.7v-0.6c1.4,0,1.5-0.1,1.5-1.6V8.3c0-1.4-0.1-1.6-1.3-1.6h-5.1
		c-1.2,0-1.3,0.1-1.3,1.6V18.8z"/>
	<path class="st2" d="M64.6,13.4c0-6.3,3.6-7.9,6.7-7.9c3.8,0,6.7,2.3,6.7,7.9c0,5.8-3,7.9-6.7,7.9C68.1,21.3,64.6,19.7,64.6,13.4z
		 M67.8,7.9c-0.9,1.1-1.4,2.8-1.4,5.5c0,2.3,0.5,4.2,1.5,5.5c0.8,1,2.1,1.6,3.5,1.6c1.4,0,2.7-0.6,3.5-1.6c0.9-1.2,1.5-3.2,1.5-5.5
		c0-2.7-0.6-4.5-1.5-5.5c-0.9-1-2.2-1.5-3.6-1.5C69.9,6.4,68.7,6.8,67.8,7.9z"/>
	<path class="st2" d="M79.7,23.4l0.8-3.2h0.9c1.5-3.6,1.8-7.6,1.8-12.7c0-0.9-0.4-1-1.8-1V5.9h11.2v0.6c-1.3,0-1.5,0.2-1.5,1.6v12.1
		h1l0.8,3.2H92c-0.6-2.2-0.8-2.4-2.3-2.4h-7.2c-1.3,0-1.6,0.2-2.2,2.4H79.7z M85.2,6.7c-0.6,0-0.7,0.1-0.7,0.7c0,5-0.3,9.2-1.7,12.8
		h6.6V7.4c0-0.7-0.1-0.7-0.7-0.7H85.2z"/>
	<path class="st2" d="M107.9,18.8c0,1.5,0.1,1.6,1.5,1.6V21h-4.7v-0.6c1.6,0,1.6-0.1,1.6-1.6V8.1c0-1.5-0.1-1.6-1.6-1.6V5.9h14.2
		v0.6c-1.6,0-1.7,0.1-1.7,1.6v10.6c0,1.5,0.1,1.6,1.7,1.6V21h-4.7v-0.6c1.4,0,1.5-0.1,1.5-1.6V8.3c0-1.4-0.1-1.6-1.3-1.6h-5.1
		c-1.2,0-1.3,0.1-1.3,1.6V18.8z"/>
	<path class="st2" d="M135.5,18.8c0,1.5,0.1,1.6,1.7,1.6V21h-4.8v-0.6c1.4,0,1.5-0.1,1.5-1.6V9.7l-7.7,8.8c0,1.7,0,1.8,1.5,1.8V21
		H123v-0.6c1.5,0,1.7-0.1,1.7-1.6V8.1c0-1.5-0.1-1.6-1.7-1.6V5.9h4.8v0.6c-1.4,0-1.5,0.1-1.5,1.6v9.2l7.7-8.8c0-1.8,0-1.9-1.5-1.9
		V5.9h4.8v0.6c-1.5,0-1.7,0.1-1.7,1.6V18.8z"/>
	<path class="st2" d="M141.7,5.9h5.1c1.8,0,2.9,0.2,4,0.9c0.8,0.6,1.3,1.4,1.3,2.5c0,1.6-1,3.2-3.7,3.7v0c1.9,0,4.5,1.1,4.5,3.7
		c0,1.7-0.7,4.3-5.1,4.3h-6.1v-0.6c1.5,0,1.6-0.1,1.6-1.6V8.1c0-1.5-0.1-1.6-1.6-1.6V5.9z M145,12.7h1.7c2.4,0,3.8-1.1,3.8-3.2
		c0-0.7-0.2-1.5-0.8-2c-0.5-0.5-1.3-0.8-2.6-0.8h-1.6c-0.5,0-0.6,0.2-0.6,0.7V12.7z M145,19.1c0,0.9,0.1,1,0.8,1h2
		c2.1,0,3.5-0.9,3.5-3.5c0-1-0.4-1.8-1.1-2.4c-0.7-0.6-1.6-0.8-3.1-0.8H145V19.1z"/>
	<path class="st2" d="M155.6,13.4c0-6.3,3.6-7.9,6.7-7.9c3.8,0,6.7,2.3,6.7,7.9c0,5.8-3,7.9-6.7,7.9
		C159.1,21.3,155.6,19.7,155.6,13.4z M158.8,7.9c-0.9,1.1-1.4,2.8-1.4,5.5c0,2.3,0.5,4.2,1.5,5.5c0.8,1,2.1,1.6,3.5,1.6
		c1.4,0,2.7-0.6,3.5-1.6c0.9-1.2,1.5-3.2,1.5-5.5c0-2.7-0.6-4.5-1.5-5.5c-0.9-1-2.2-1.5-3.6-1.5C160.9,6.4,159.7,6.8,158.8,7.9z"/>
</g>
<path class="st2" d="M23.8,23.8l-2.1-2.1l0,0L0,0c0,0,3.2,7.3,13.6,17.9l2.8-0.5L16,17.8c-0.2,0.2-0.2,0.6,0,0.9l6.5,6.5
	c0.2,0.2,0.6,0.2,0.9,0l0.5-0.5C24,24.4,24,24,23.8,23.8z"/>
<path class="st2" d="M23.8,23.8l-2.1-2.1l0,0L0,0c0,0,3.2,7.3,13.6,17.9l2.8-0.5L16,17.8c-0.2,0.2-0.2,0.6,0,0.9l6.5,6.5
	c0.2,0.2,0.6,0.2,0.9,0l0.5-0.5C24,24.4,24,24,23.8,23.8z"/>
<g>
	<path class="st2" d="M18.6,17.3l0.4-0.4c0.2-0.2,0.2-0.6,0-0.9L18,15.2l5.1,3.6L35.8,6.2l-5.1-3.4C30,2.3,29,2.4,28.4,3L16.3,15.1
		L18.6,17.3z"/>
	<path class="st2" d="M15.4,19.3c-0.2-0.2-0.4-0.5-0.4-0.8l-1.1,0.2c-0.3,0.1-0.6,0-0.8-0.2c0,0,0,0,0,0l-1.6,1.6l-2.9,2.9
		c-0.2,0.2-0.2,0.6,0,0.9l1.4,1.4c0.2,0.2,0.6,0.2,0.9,0l5.2-5.2L15.4,19.3z"/>
</g>
</svg>
