<?xml version="1.0" encoding="utf-8"?>
<!-- Generator: Adobe Illustrator 19.0.1, SVG Export Plug-In . SVG Version: 6.00 Build 0)  -->
<svg version="1.1" id="Layer_1" xmlns="http://www.w3.org/2000/svg" xmlns:xlink="http://www.w3.org/1999/xlink" x="0px" y="0px"
	 viewBox="0 0 45 45" style="enable-background:new 0 0 45 45;" xml:space="preserve">
<style type="text/css">
	.pig0{fill:none;stroke:#FFFFFF;stroke-width:2;stroke-linecap:round;stroke-linejoin:round;stroke-miterlimit:10;}
	.pig1{fill:#FFFFFF;}
</style>
<path class="pig1" d="M44.1,19.5c0,0-1.1,3.8-1.2,3.8c-0.1,0.1-0.3-0.2-0.5-0.2c-0.9,0.5-2.3,1.5-4.7,1.6c0,0-0.5,1.6-3.7,2.1
	l-0.5,5.6L32.4,32l-1.2,0.5l-0.6-5.2c0,0-6.2,3.7-17,0.7c0,0-2.1,2.6-4.9,2.4l0.8,2.8l-1.5-0.7l-1.2,0.7l-1.7-5.1
	c-0.1-0.2,0-0.5,0.1-0.6c0.4-0.4,1.1-1.2,1.1-1.4c0-0.3-3.7-6.6-0.9-11c1.1-1.8,3-2.8,5.1-3c0,0,20.2-2.6,24.6,3.4
	c0,0,2.3-2.5,4.6-1.2c0,0-1.7,1.4-1.4,2.6c0,0,1.3,0.6,1.5,1.5c0.1,0.4,0,0.9,0.4,1.1c1.3,0.5,2.7,0.3,2.9,0.3
	c0.2,0,0.4-0.4,0.7-0.4L44.1,19.5z"/>
<path class="pig1" d="M27.4,30.3c0,0,1.1-0.3,2.2-0.6l-0.4,2.8l-0.9-1.3L27,32.5L27.4,30.3z"/>
<path class="pig1" d="M12.2,31.3c0,0,1.3-0.5,2.1-1.3l1,2.8l-1.4-0.5l-0.4,1L12.2,31.3z"/>
<path class="pig1" d="M4.5,17.1c0,0-1.4-0.4-2,1.3C2,19.7,3.1,21.9,1,22.7"/>
</svg>
