<?xml version="1.0" encoding="utf-8"?>
<!-- Generator: Adobe Illustrator 19.0.1, SVG Export Plug-In . SVG Version: 6.00 Build 0)  -->
<svg version="1.1" id="Layer_1" xmlns="http://www.w3.org/2000/svg" xmlns:xlink="http://www.w3.org/1999/xlink" x="0px" y="0px"
	 viewBox="0 0 45 45" style="enable-background:new 0 0 45 45;" xml:space="preserve">
<style type="text/css">
	.turkey0{fill:none;stroke:#FFFFFF;stroke-width:2;stroke-linecap:round;stroke-linejoin:round;stroke-miterlimit:10;}
	.turkey1{fill:#FFFFFF;}
</style>
<path class="turkey1" d="M35.9,27.2l3.6,1l3.1-3.4l-3.2-3.5l-4.6-0.4l5.7-4.3l0.4-4.2l-4.9-1l-4.8,0.9l2.3-3.2l-1.2-3.4l-4.5,1
	c0,0-1.9,1.8-3.3,3c-1.3-0.1-2.6-0.1-3.9,0.3c-3.3,0.9-4.9,7.3-5.7,7c-2.6-1.1-4.2-4.4-3.8-11.2c0-0.8-1.5-2.1-3-1.3C6.7,5,6,6,6,6
	S4.8,6.7,4.4,7.4l1.3-0.1c0,0-2.1,11.4,0.2,11.4c2.3,0,0.7-11.5,0.7-11.5s0.9,0.3,1.4,1c0.5,0.7,0.7,2.2,0.8,2.8l0.3,2.4
	c0.3,2.5-0.1,5.1-1.4,7.3c-1.3,2.2-2.1,5.1,0.5,8.6c1.8,2.5,5.4,3.1,5.9,3.3l0.8,0.3c0.2,0.1,0.3,0.2,0.4,0.4l0,0
	c0.4,1.1,0.4,2.3,0.2,3.4l-0.4,1.5l-4.6,1.3h7l-1.3-1.1l1-4.6L18,34l2-0.8l0.7,2.3c0.1,0.4,0.2,0.8,0.2,1.2v1.8l-1.5,1.1h7.7
	l-4.5-1.3l-0.3-1.3c-0.2-0.8-0.1-1.7,0.3-2.5c0,0,3.6,2.1,7.1,3c0.4,0.9,0.7,2,0.7,2h3.9l-1.7-1.7l3.6,0.7l4-1.2L39,32.3L35.9,27.2z
	"/>
</svg>
