<?xml version="1.0" encoding="utf-8"?>
<!-- Generator: Adobe Illustrator 19.0.1, SVG Export Plug-In . SVG Version: 6.00 Build 0)  -->
<svg version="1.1" id="weight" xmlns="http://www.w3.org/2000/svg" xmlns:xlink="http://www.w3.org/1999/xlink" x="0px" y="0px"
	 viewBox="0 0 45 45" style="enable-background:new 0 0 45 45;" xml:space="preserve">
<style type="text/css">
	.weight0{fill:none;stroke:#FFFFFF;stroke-width:2;stroke-linecap:round;stroke-linejoin:round;stroke-miterlimit:10;}
	.weight1{fill:#FFFFFF;}
</style>
<g>
	<path class="weight1" d="M25.8,5c1.2,0,3.9,0.3,3.9,2.9V9H27c-1.1,0-2,0.9-2,2v5.9c0,1.1,0.9,2,2,2h0.8c2.9,0,5.2,2.3,5.2,5.2V40H12
		V24.1c0-2.9,2.3-5.2,5.2-5.2H18c1.1,0,2-0.9,2-2V11c0-1.1-0.9-2-2-2h-2.6V7.9c0-2.6,2.7-2.9,3.9-2.9H25.8 M25.8,3h-6.5
		c-3.2,0-5.9,1.6-5.9,4.9v2.1c0,0.6,0.5,1.1,1.1,1.1H18v5.9h-0.8c-4,0-7.2,3.2-7.2,7.2v16.6c0,0.7,0.6,1.2,1.2,1.2h22.5
		c0.7,0,1.2-0.6,1.2-1.2V24.1c0-4-3.2-7.2-7.2-7.2H27V11h3.6c0.6,0,1.1-0.5,1.1-1.1V7.9C31.6,4.6,29,3,25.8,3L25.8,3z"/>
</g>
</svg>
